<svg xmlns="http://www.w3.org/2000/svg" width="40" height="34.989" viewBox="0 0 40 34.989"><defs><style>.a{fill:#27395c;}</style></defs><g transform="translate(0 -32.072)"><path class="a" d="M24.648,35.013a.586.586,0,0,0,.586-.586V32.658a.586.586,0,0,0-1.172,0v1.769A.586.586,0,0,0,24.648,35.013Zm-2.883.109a.586.586,0,0,0,1.021-.576l-.743-1.317a.586.586,0,0,0-1.021.576Zm4.968.222a.587.587,0,0,0,.8-.222l.743-1.317a.586.586,0,0,0-1.021-.576l-.743,1.317A.586.586,0,0,0,26.733,35.344ZM38,51.439l-4.75-1.583a.976.976,0,0,1-.594-.556l-2.647-6.44a2.919,2.919,0,0,0-2.71-1.816h-.03V39.99a2.617,2.617,0,0,0-5.234,0v1.055H2.93A2.933,2.933,0,0,0,0,43.975v3.867a.586.586,0,0,0,1.172,0V43.975A1.76,1.76,0,0,1,2.93,42.217H17.461V54.873H1.172v-4.3a.586.586,0,0,0-1.172,0V59.8a2.933,2.933,0,0,0,2.93,2.93h1.5a4.921,4.921,0,0,0,9.772,0H24.88a4.921,4.921,0,0,0,9.772,0H37.07A2.933,2.933,0,0,0,40,59.8V54.219a2.925,2.925,0,0,0-2-2.779ZM9.316,65.889a3.75,3.75,0,1,1,3.75-3.75A3.754,3.754,0,0,1,9.316,65.889Zm8.145-4.336H14.2a4.921,4.921,0,0,0-9.772,0H2.93A1.76,1.76,0,0,1,1.172,59.8v-3.75H17.461ZM23.2,39.99a1.445,1.445,0,0,1,2.891,0v1.055H23.2Zm6.563,25.9a3.75,3.75,0,1,1,3.75-3.75A3.754,3.754,0,0,1,29.766,65.889Zm9.063-11.016H29.891a.586.586,0,0,0,0,1.172h8.937V59.8a1.76,1.76,0,0,1-1.758,1.758H34.651a4.921,4.921,0,0,0-9.772,0H18.633V56.045h8.524a.586.586,0,0,0,0-1.172H18.633V42.217H27.3a1.751,1.751,0,0,1,1.626,1.089l2.647,6.44a2.147,2.147,0,0,0,1.308,1.222l4.75,1.583a1.755,1.755,0,0,1,1.2,1.667ZM27.83,44a.972.972,0,0,0-.906-.612H20.781a.978.978,0,0,0-.977.977V49.8a.978.978,0,0,0,.977.977h8.328a.987.987,0,0,0,.906-1.341Zm-6.853,5.6V44.561h5.815L28.82,49.6Zm8.789,10.781a1.758,1.758,0,1,0,1.758,1.758A1.76,1.76,0,0,0,29.766,60.381Zm0,2.344a.586.586,0,1,1,.586-.586A.587.587,0,0,1,29.766,62.725ZM10.02,43.389H8.613a1.056,1.056,0,0,0-1.055,1.055v2.344H5.215A1.056,1.056,0,0,0,4.16,47.842v1.406A1.056,1.056,0,0,0,5.215,50.3H7.559v2.344A1.056,1.056,0,0,0,8.613,53.7H10.02a1.056,1.056,0,0,0,1.055-1.055V50.3h2.344a1.056,1.056,0,0,0,1.055-1.055V47.842a1.056,1.056,0,0,0-1.055-1.055H11.074V44.444A1.056,1.056,0,0,0,10.02,43.389Zm3.281,4.57v1.172H10.723a.821.821,0,0,0-.82.82v2.578H8.73V49.951a.821.821,0,0,0-.82-.82H5.332V47.959H7.91a.821.821,0,0,0,.82-.82V44.561H9.9v2.578a.821.821,0,0,0,.82.82ZM9.316,60.381a1.758,1.758,0,1,0,1.758,1.758A1.76,1.76,0,0,0,9.316,60.381Zm0,2.344a.586.586,0,1,1,.586-.586A.587.587,0,0,1,9.316,62.725Z" transform="translate(0 0)"/></g></svg>