<svg xmlns="http://www.w3.org/2000/svg" width="22.756" height="20.078" viewBox="0 0 22.756 20.078"><defs><style>.a{fill:#ababab;}</style></defs><g transform="translate(0 -30.125)"><path class="a" d="M22.089,34.142H16.061V32.817a2.7,2.7,0,0,0-2.692-2.692H9.386a2.7,2.7,0,0,0-2.692,2.692v1.325H.667A.667.667,0,0,0,0,34.808V46.92A3.287,3.287,0,0,0,3.283,50.2H19.472a3.287,3.287,0,0,0,3.283-3.283V34.808A.667.667,0,0,0,22.089,34.142Zm-9.2,8.7a1.513,1.513,0,0,1-3.025,0V41.329h3.025ZM13.557,40H9.2a.667.667,0,0,0-.667.667v1.211c-3.877-.841-6.783-3.356-7.157-6.4H21.381c-.374,3.042-3.28,5.557-7.157,6.4V40.662A.667.667,0,0,0,13.557,40ZM8.028,32.817a1.36,1.36,0,0,1,1.359-1.359h3.983a1.36,1.36,0,0,1,1.359,1.359v1.325h-6.7V32.817Zm13.395,14.1a1.952,1.952,0,0,1-1.95,1.95H3.283a1.952,1.952,0,0,1-1.95-1.95V38.913A9.358,9.358,0,0,0,3.4,41.022,12.56,12.56,0,0,0,8.56,43.241a2.846,2.846,0,0,0,5.635,0,12.56,12.56,0,0,0,5.157-2.219,9.359,9.359,0,0,0,2.071-2.109Z"/></g></svg>