<svg xmlns="http://www.w3.org/2000/svg" width="22.016" height="22.016" viewBox="0 0 22.016 22.016"><defs><style>.a{fill:#ababab;}</style></defs><ellipse class="a" cx="0.921" cy="0.461" rx="0.921" ry="0.461" transform="translate(15.614 8.245)"/><path class="a" d="M18.576,1.72H17.458V.86a.86.86,0,1,0-1.72,0v.86H11.825V.86a.86.86,0,0,0-1.72,0v.86H6.235V.86a.86.86,0,0,0-1.72,0v.86H3.44A3.444,3.444,0,0,0,0,5.16V18.576a3.444,3.444,0,0,0,3.44,3.44h6.579a.86.86,0,0,0,0-1.72H3.44a1.722,1.722,0,0,1-1.72-1.72V5.16A1.722,1.722,0,0,1,3.44,3.44H4.515V4.3a.86.86,0,0,0,1.72,0V3.44h3.87V4.3a.86.86,0,0,0,1.72,0V3.44h3.913V4.3a.86.86,0,0,0,1.72,0V3.44h1.118A1.722,1.722,0,0,1,20.3,5.16v4.9a.86.86,0,1,0,1.72,0V5.16A3.444,3.444,0,0,0,18.576,1.72Z"/><path class="a" d="M275.2,270a5.2,5.2,0,1,0,5.2,5.2A5.209,5.209,0,0,0,275.2,270Zm0,8.686a3.483,3.483,0,1,1,3.483-3.483A3.487,3.487,0,0,1,275.2,278.686Z" transform="translate(-258.39 -258.39)"/><path class="a" d="M373.107,331.763h-.387v-.9a.86.86,0,1,0-1.72,0v1.763a.86.86,0,0,0,.86.86h1.247a.86.86,0,0,0,0-1.72Z" transform="translate(-355.047 -315.81)"/><ellipse class="a" cx="0.921" cy="0.461" rx="0.921" ry="0.461" transform="translate(11.929 8.245)"/><circle class="a" cx="0.921" cy="0.921" r="0.921" transform="translate(8.245 11.929)"/><ellipse class="a" cx="0.921" cy="0.461" rx="0.921" ry="0.461" transform="translate(4.56 8.245)"/><circle class="a" cx="0.921" cy="0.921" r="0.921" transform="translate(4.56 11.929)"/><circle class="a" cx="0.921" cy="0.921" r="0.921" transform="translate(4.56 15.614)"/><circle class="a" cx="0.921" cy="0.921" r="0.921" transform="translate(8.245 15.614)"/><ellipse class="a" cx="0.921" cy="0.461" rx="0.921" ry="0.461" transform="translate(8.245 8.245)"/></svg>