<svg xmlns="http://www.w3.org/2000/svg" width="35.476" height="40" viewBox="0 0 35.476 40"><defs><style>.a{fill:#27395c;}</style></defs><g transform="translate(0)"><g transform="translate(0)"><path class="a" d="M64.4,37.952l-1.77-10.36a2.949,2.949,0,0,0-2.067-2.34l-4.773-1.44A5.323,5.323,0,0,0,52.1,19.189c.151-.168.291-.335.42-.5a9.264,9.264,0,0,0,1.9-4.119h.368a1.739,1.739,0,0,0,1.737-1.737v-.89a1.749,1.749,0,0,0-.9-1.519V8.285a.586.586,0,1,0-1.171,0v2.4a3.61,3.61,0,0,0-.779.225.588.588,0,0,0-.083.037c-.063.029-.126.059-.189.093V6.323a2.368,2.368,0,0,0-2.365-2.365H49.419a2.43,2.43,0,0,0-1.534.547l-.159.13a1.636,1.636,0,0,1-2.071,0l-.159-.13a2.431,2.431,0,0,0-1.534-.547H42.345A2.368,2.368,0,0,0,39.98,6.323v4.72c-.063-.034-.126-.064-.189-.093a.587.587,0,0,0-.082-.037,3.612,3.612,0,0,0-.779-.225V4.611a3.444,3.444,0,0,1,3.44-3.44h8.641a3.444,3.444,0,0,1,3.44,3.44v.921a.586.586,0,1,0,1.171,0V4.611A4.617,4.617,0,0,0,51.011,0H42.37a4.617,4.617,0,0,0-4.611,4.611v5.815a1.749,1.749,0,0,0-.9,1.519v.89A1.739,1.739,0,0,0,38.6,14.572h.368a9.263,9.263,0,0,0,1.9,4.119c.128.163.268.33.419.5a5.343,5.343,0,0,0-3.694,4.623l-4.773,1.44a2.949,2.949,0,0,0-2.067,2.34L30.028,31.8a.586.586,0,0,0,1.155.2l.719-4.207a1.784,1.784,0,0,1,1.25-1.415l4.414-1.332V26.2a2.931,2.931,0,0,0-2.228,1.844,2.971,2.971,0,0,0-.174.8l-.427,5.476a1.489,1.489,0,0,0,1.484,1.6h.73a.586.586,0,1,0,0-1.171h-.73a.317.317,0,0,1-.316-.342l.427-5.476a1.8,1.8,0,0,1,.105-.482A1.771,1.771,0,0,1,38.1,27.321h.11a1.755,1.755,0,0,1,1.636,1.049,1.8,1.8,0,0,1,.137.562l.427,5.476a.317.317,0,0,1-.316.342h-.73a.586.586,0,1,0,0,1.171h.73a1.489,1.489,0,0,0,1.484-1.6l-.427-5.476a2.967,2.967,0,0,0-.226-.928A2.9,2.9,0,0,0,38.738,26.2V24.689l2.014-.608c.183.386.546,1.22,1.265,3.017.725,1.814,1.626,4.138,2.49,6.4q.009.028.021.056c.577,1.509,1.136,2.986,1.614,4.261a.586.586,0,0,0,1.1,0c.478-1.275,1.038-2.752,1.614-4.261a.584.584,0,0,0,.021-.056c.863-2.259,1.764-4.582,2.488-6.395s1.083-2.634,1.267-3.02l2.014.608v3.46a3.03,3.03,0,1,0,1.171,0V25.042l4.415,1.332a1.784,1.784,0,0,1,1.25,1.415l1.77,10.36a.582.582,0,0,1-.573.68H30.705a.582.582,0,0,1-.573-.68l.584-3.419a.586.586,0,0,0-1.155-.2l-.584,3.419A1.753,1.753,0,0,0,30.705,40h31.97A1.753,1.753,0,0,0,64.4,37.952Zm-9.946-26.07a2.514,2.514,0,0,1,.565-.076.6.6,0,0,0,.286-.068.555.555,0,0,1,.041.207v.89a.566.566,0,0,1-.565.565h-.328ZM38.923,13.4H38.6a.566.566,0,0,1-.565-.565v-.89a.556.556,0,0,1,.041-.207.6.6,0,0,0,.286.068,2.611,2.611,0,0,1,.565.077V13.4Zm1.171.657V12.519a.822.822,0,0,0,1.057-.788V6.323A1.2,1.2,0,0,1,42.345,5.13h1.617a1.256,1.256,0,0,1,.793.283l.159.13a2.808,2.808,0,0,0,3.555,0l.159-.13a1.255,1.255,0,0,1,.793-.283h1.617a1.2,1.2,0,0,1,1.194,1.194v5.407a.822.822,0,0,0,1.057.788v1.538a7.576,7.576,0,0,1-1.687,3.91,7.723,7.723,0,0,1-1.4,1.391.587.587,0,0,0-.052.039,5.71,5.71,0,0,1-6.905,0,.594.594,0,0,0-.052-.039,7.728,7.728,0,0,1-1.4-1.391A7.576,7.576,0,0,1,40.094,14.057Zm10.433,9.464L46.69,26.389l-3.837-2.868a2.778,2.778,0,0,0,.594-1.659v-.944a6.879,6.879,0,0,0,6.487,0v.944A2.778,2.778,0,0,0,50.528,23.521Zm-8.653-.654a1.6,1.6,0,0,0-.988-.05l-.042.011-2.024.611a4.161,4.161,0,0,1,3.453-3.282v1.705A1.549,1.549,0,0,1,41.875,22.867Zm1.59,4.7,0-.008-.088-.222-.016-.04-.084-.213-.006-.015-.251-.628L43,26.4l-.068-.17-.025-.061-.065-.161-.019-.047-.114-.28-.03-.074-.043-.1-.046-.111-.017-.042-.013-.032q-.1-.247-.193-.465v0l-.095-.226-.047-.11,3.3,2.467-1.379.586-.007,0-.576.245Zm1.4,3.587-.349-.9q-.274-.708-.524-1.348l.219-.093L45.1,29.85ZM46.7,35.917a.584.584,0,0,0-.06-.1c-.265-.7-.6-1.585-.972-2.559l.547-2.994h.948l.547,2.994C47.322,34.28,46.972,35.2,46.7,35.917Zm.682-6.823H46l-.657-.763,1.35-.574,1.35.574Zm1.483,1.158-.349.9-.239-1.306.893-1.038.219.093Q49.141,29.545,48.867,30.252Zm2.244-5.629-.09.214-.012.029-.093.224-.006.016-.085.205-.016.038-.02.048-.039.095-.049.119-.016.039-.125.309-.02.05-.064.159-.025.063-.068.168-.019.048q-.119.3-.247.619l-.008.021-.084.211-.016.04-.089.224,0,0-.1.247-.576-.245-.006,0-1.38-.586,3.3-2.467Zm1.425-1.795h0a1.6,1.6,0,0,0-1.028.039,1.549,1.549,0,0,1-.4-1V20.157a4.129,4.129,0,0,1,3.456,3.284Zm4.546,8.294a1.859,1.859,0,1,1-1.859-1.859A1.861,1.861,0,0,1,57.081,31.123Z" transform="translate(-28.952)"/></g></g></svg>