<svg xmlns="http://www.w3.org/2000/svg" width="41.274" height="43.971" viewBox="0 0 41.274 43.971"><defs><style>.a{fill:#27395c;}</style></defs><g transform="translate(8.586 10.818)"><g transform="translate(0)"><path class="a" d="M116.559,125.994a.863.863,0,1,0,.863.863A.864.864,0,0,0,116.559,125.994Z" transform="translate(-115.696 -125.994)"/></g></g><g transform="translate(9.434 23.415)"><path class="a" d="M133.464,276.439h-2.589v-2.589a.863.863,0,0,0-1.726,0v2.589h-2.589a.863.863,0,1,0,0,1.726h2.589v2.589a.863.863,0,1,0,1.726,0v-2.589h2.589a.863.863,0,1,0,0-1.726Z" transform="translate(-125.696 -272.986)"/></g><g transform="translate(0)"><path class="a" d="M56.054,27.652a6.866,6.866,0,0,0-9.385-2.515l-3.488,2.014V19.694a4.325,4.325,0,0,0-.859-2.576l-4.294-5.725V8.955a2.58,2.58,0,0,0,1.718-2.429V2.576A2.579,2.579,0,0,0,37.17,0H21.712a2.579,2.579,0,0,0-2.576,2.576v3.95a2.581,2.581,0,0,0,1.718,2.429v2.438l-4.294,5.725a4.324,4.324,0,0,0-.858,2.576V36.326a4.3,4.3,0,0,0,4.294,4.294H33.8a6.863,6.863,0,0,0,9.332,2.429L53.54,37.037A6.875,6.875,0,0,0,56.054,27.652ZM20.854,2.576a.86.86,0,0,1,.859-.859H37.17a.86.86,0,0,1,.859.859v3.95a.86.86,0,0,1-.859.859H21.712a.86.86,0,0,1-.859-.859V2.576Zm-2.92,15.572L22.4,12.195a.859.859,0,0,0,.172-.515V9.1h13.74V10.82H28.583a.859.859,0,1,0,0,1.718h8.158l4.208,5.61a2.6,2.6,0,0,1,.5,1.26H17.437A2.6,2.6,0,0,1,17.934,18.148ZM19.995,38.9a2.579,2.579,0,0,1-2.576-2.576v-.867h15.6a6.881,6.881,0,0,0,.041,3.444H19.995Zm13.7-5.153H17.419V21.126H41.464v7.018l-5.206,3.006A6.819,6.819,0,0,0,33.695,33.75Zm8.575,7.811a5.152,5.152,0,1,1-5.153-8.924l4.661-2.691,5.153,8.924Zm10.412-6.011-4.263,2.461-5.153-8.924,4.263-2.461a5.152,5.152,0,1,1,5.153,8.924Z" transform="translate(-15.701)"/></g></svg>