<svg xmlns="http://www.w3.org/2000/svg" width="38" height="38" viewBox="0 0 38 38"><defs><style>.a{fill:#27395c;}.b{fill:#fff;}</style></defs><g transform="translate(-164.53 -131.53)"><g transform="translate(165 132)"><circle class="a" cx="19" cy="19" r="19" transform="translate(-0.47 -0.47)"/><g transform="translate(9.668 10.473)"><path class="b" d="M17.664,33.337h-4.82V32.278a2.155,2.155,0,0,0-2.153-2.153H7.506a2.155,2.155,0,0,0-2.153,2.153v1.059H.533A.533.533,0,0,0,0,33.87v9.685a2.629,2.629,0,0,0,2.626,2.626H15.572A2.629,2.629,0,0,0,18.2,43.556V33.87A.533.533,0,0,0,17.664,33.337Zm-7.356,6.957a1.21,1.21,0,0,1-2.419,0v-1.21h2.419Zm.533-2.276H7.356a.533.533,0,0,0-.533.533v.968C3.723,38.847,1.4,36.836,1.1,34.4h16c-.3,2.433-2.623,4.444-5.723,5.117v-.968a.533.533,0,0,0-.533-.533ZM6.42,32.278a1.088,1.088,0,0,1,1.086-1.086h3.185a1.088,1.088,0,0,1,1.086,1.086v1.059H6.42V32.278ZM17.131,43.556a1.561,1.561,0,0,1-1.559,1.559H2.626a1.561,1.561,0,0,1-1.559-1.559v-6.4a7.484,7.484,0,0,0,1.656,1.687,10.044,10.044,0,0,0,4.124,1.775,2.276,2.276,0,0,0,4.506,0,10.044,10.044,0,0,0,4.124-1.775,7.484,7.484,0,0,0,1.656-1.687Z" transform="translate(0 -30.125)"/></g></g></g></svg>