<svg xmlns="http://www.w3.org/2000/svg" width="39.442" height="40" viewBox="0 0 39.442 40"><defs><style>.a{fill:#27395c;}</style></defs><g transform="translate(0)"><path class="a" d="M126.959,356.621a2.056,2.056,0,1,0,2.056-2.056A2.058,2.058,0,0,0,126.959,356.621Zm2.929,0a.873.873,0,1,1-.873-.873A.874.874,0,0,1,129.888,356.621Z" transform="translate(-117.33 -326.894)"/><path class="a" d="M319.112,125.945a1.949,1.949,0,0,0,0-3.387.764.764,0,0,1-.359-.87,1.949,1.949,0,0,0-2.4-2.394.766.766,0,0,1-.869-.36,1.949,1.949,0,0,0-3.387,0,.767.767,0,0,1-.87.359,1.949,1.949,0,0,0-2.394,2.4.766.766,0,0,1-.36.869,1.949,1.949,0,0,0,0,3.387.767.767,0,0,1,.359.87,1.949,1.949,0,0,0,2.4,2.394.766.766,0,0,1,.869.36,1.949,1.949,0,0,0,3.387,0,.767.767,0,0,1,.87-.359,1.949,1.949,0,0,0,2.395-2.4A.766.766,0,0,1,319.112,125.945Zm-.586-1.028a1.946,1.946,0,0,0-.915,2.21.767.767,0,0,1-.944.941,1.948,1.948,0,0,0-2.208.915.767.767,0,0,1-1.332,0,1.949,1.949,0,0,0-2.21-.914.767.767,0,0,1-.941-.944,1.949,1.949,0,0,0-.915-2.208.767.767,0,0,1,0-1.332,1.946,1.946,0,0,0,.917-2.2.766.766,0,0,1,.941-.951,1.949,1.949,0,0,0,2.208-.915.767.767,0,0,1,1.332,0,1.949,1.949,0,0,0,2.21.915.766.766,0,0,1,.941.944,1.949,1.949,0,0,0,.915,2.208A.766.766,0,0,1,318.527,124.917Z" transform="translate(-283.892 -108.772)"/><path class="a" d="M41.02,9.652a.586.586,0,1,0-.924.721,8.2,8.2,0,0,1,1.747,5.087,8.281,8.281,0,0,1-16.557.28c1.7-1.7,1.637-1.63,1.732-1.746a1.952,1.952,0,0,0,.439-1.235,2.31,2.31,0,0,0-.9-1.713,8.3,8.3,0,0,1,7.007-3.866,8.209,8.209,0,0,1,4.972,1.659.586.586,0,1,0,.7-.937,9.372,9.372,0,0,0-5.677-1.894A9.468,9.468,0,0,0,25.709,10.2L25.3,9.788a1.961,1.961,0,0,0-2.29-.351L15.735,2.164a3.141,3.141,0,0,0-3.981-.375L10.6.636a2.167,2.167,0,0,0-3.067,0l-1.55,1.55a2.167,2.167,0,0,0,0,3.067L7.136,6.405a3.136,3.136,0,0,0-.067,3.426A13.848,13.848,0,0,0,4.683,24.462.586.586,0,0,0,5.76,24a12.679,12.679,0,0,1,2.086-13.28L10.9,13.773a8.384,8.384,0,0,0,1.607,12.042c-1.011.788-1.241,1.534-2.544,3.464a12.719,12.719,0,0,1-3.084-3.218.586.586,0,1,0-.974.651,13.885,13.885,0,0,0,3.425,3.555L7.346,33.36a3.522,3.522,0,0,0-3.187,3.5v1.3A1.843,1.843,0,0,0,6,40H32.853a2.336,2.336,0,0,0,2.334-2.334,4.327,4.327,0,0,0-4.322-4.322H20.259V31.227h8.7a1.762,1.762,0,0,0,1.76-1.76,3.605,3.605,0,0,0-3.6-3.6H18.461a4.8,4.8,0,0,0-4.828-.7,7.21,7.21,0,0,1-1.9-10.554l3.051,3.051a1.956,1.956,0,0,0,.351,2.29l1.586,1.586a1.956,1.956,0,0,0,2.767,0l4.717-4.717A9.453,9.453,0,1,0,41.02,9.652ZM34.015,37.666a1.163,1.163,0,0,1-1.162,1.162H6a.67.67,0,0,1-.669-.669v-1.3a2.348,2.348,0,0,1,2.346-2.346H30.865A3.154,3.154,0,0,1,34.015,37.666Zm-6.9-10.628a2.432,2.432,0,0,1,2.429,2.429.588.588,0,0,1-.588.588h-8.7a5.132,5.132,0,0,0-.748-3.017Zm-8.03,2.546c0,.009,0,.017,0,.026v3.735H8.748c3.915-6.107,3.715-5.82,3.95-6.1a3.631,3.631,0,0,1,6.388,2.337ZM14.906,2.993l7.21,7.21L17.739,14.58,15.55,16.768C7.794,9.012,8.341,9.562,8.265,9.478a1.963,1.963,0,0,1,.076-2.7l3.788-3.788a1.966,1.966,0,0,1,2.778,0Zm-8.094.021,1.55-1.55a1,1,0,0,1,1.41,0l1.114,1.114L7.926,5.538,6.812,4.424a1,1,0,0,1,0-1.41ZM18.661,20.708a.785.785,0,0,1-1.11,0l-1.586-1.586a.785.785,0,0,1,0-1.11l2.465-2.465,4.93-4.93a.785.785,0,0,1,1.11,0L26.056,12.2a.786.786,0,0,1,0,1.11Z" transform="translate(-3.573 0)"/></g></svg>