<svg xmlns="http://www.w3.org/2000/svg" width="28.636" height="40" viewBox="0 0 28.636 40"><defs><style>.a{fill:#27395c;}</style></defs><g transform="translate(0)"><g transform="translate(0 0)"><path class="a" d="M100.78,448.469c-.324,0-.586.357-.586.8v.786H95.565v-4.784c0-.44-.262-.8-.586-.8s-.586.357-.586.8v4.784H79.7v-4.784c0-.44-.262-.8-.586-.8s-.586.357-.586.8v4.784H73.9v-.786c0-.44-.262-.8-.586-.8s-.586.357-.586.8v1.583c0,.44.262.8.586.8H100.78c.324,0,.586-.357.586-.8v-1.583C101.366,448.826,101.1,448.469,100.78,448.469Z" transform="translate(-72.73 -411.646)"/><path class="a" d="M99.543,28.712a9.208,9.208,0,0,0-4.751-3.218l-2.925-.854h3.863a.575.575,0,0,0,.586-.563V22.154a.586.586,0,0,0-1.172,0v1.36H90.712V22.078a7.386,7.386,0,0,0,4.008-6.008h.424v3.457a.586.586,0,0,0,1.172,0V15.879a2.08,2.08,0,0,0,1.263-1.89V12.927a2.08,2.08,0,0,0-1.263-1.89v-.613A8.619,8.619,0,0,0,95,5.857l.968-3a.548.548,0,0,0-.16-.578C95.71,2.182,93.206,0,87.048,0s-8.662,2.182-8.765,2.275a.549.549,0,0,0-.16.578l.968,3a8.62,8.62,0,0,0-1.31,4.567v.613a2.08,2.08,0,0,0-1.263,1.89v1.062a2.08,2.08,0,0,0,1.263,1.89v8.2a.575.575,0,0,0,.586.563h3.863l-2.982.886a9,9,0,0,0-4.694,3.185,8.618,8.618,0,0,0-1.823,5.3v.119a.586.586,0,0,0,1.172,0v-.119a7.781,7.781,0,0,1,5.743-7.445l.628-.183,1.259,2.9A2.124,2.124,0,0,0,82.976,30.5a2.267,2.267,0,0,0,.559.07,2.2,2.2,0,0,0,1.319-.436l2.194-1.631,2.194,1.631a2.2,2.2,0,0,0,1.319.436,2.267,2.267,0,0,0,.559-.07,2.124,2.124,0,0,0,1.444-1.211l1.259-2.9.628.183a7.781,7.781,0,0,1,5.743,7.445v.119a.586.586,0,0,0,1.172,0v-.119a8.619,8.619,0,0,0-1.823-5.3Zm-12.5-1.481a2.448,2.448,0,0,1-2.492-2.4V22.573a7.989,7.989,0,0,0,4.984,0v2.263A2.448,2.448,0,0,1,87.048,27.231Zm0-5.385A6.406,6.406,0,0,1,80.534,15.7l.706-1.439a3.91,3.91,0,0,1,3.509-2.138h1.726a5.191,5.191,0,0,0,2.92-.894l.456.384a2.133,2.133,0,0,0,1.367.51h.017a.905.905,0,0,1,.813.5L93.562,15.7A6.406,6.406,0,0,1,87.048,21.846Zm9.358-7.856a.975.975,0,0,1-.992.954h-.677v-2.97h.677a.975.975,0,0,1,.992.954ZM87.048,1.126c4.543,0,6.919,1.266,7.685,1.769L93.245,7.509H80.851L79.363,2.9c.769-.506,3.144-1.77,7.685-1.77ZM79.588,7.4l.271.84a.584.584,0,0,0,.56.4H93.677a.584.584,0,0,0,.56-.4l.271-.84a7.512,7.512,0,0,1,.636,3.025v.423h-.993a.575.575,0,0,0-.586.563v1.658l-.455-.928A2.086,2.086,0,0,0,91.236,11h-.017a.936.936,0,0,1-.6-.231l-.822-.691a.6.6,0,0,0-.772,0A3.971,3.971,0,0,1,86.475,11H84.749a5.133,5.133,0,0,0-4.218,2.185V11.41a.575.575,0,0,0-.586-.563h-.993v-.423A7.511,7.511,0,0,1,79.588,7.4Zm-1.9,5.528a.975.975,0,0,1,.992-.954h.677v2.97h-.677a.975.975,0,0,1-.992-.954Zm1.262,3.142h.424a7.387,7.387,0,0,0,4.008,6.008v1.437H78.953Zm5.184,13.177a1.016,1.016,0,0,1-.861.168.974.974,0,0,1-.662-.555L81.4,26.06h0l2.043-.6A3.567,3.567,0,0,0,85.678,28.1ZM92.7,26.06l-1.213,2.8a.974.974,0,0,1-.662.555,1.016,1.016,0,0,1-.861-.168L88.418,28.1a3.567,3.567,0,0,0,2.234-2.638Z" transform="translate(-72.73 0)"/><path class="a" d="M231.114,35.85h1.135v1.135a.8.8,0,1,0,1.594,0V35.85h1.135a.8.8,0,1,0,0-1.594h-1.135V33.122a.8.8,0,1,0-1.594,0v1.135h-1.135a.8.8,0,0,0,0,1.594Z" transform="translate(-218.728 -28.891)"/></g></g></svg>