<svg xmlns="http://www.w3.org/2000/svg" width="37.337" height="40" viewBox="0 0 37.337 40"><defs><style>.a{fill:#27395c;}</style></defs><g transform="translate(-17.046 0)"><g transform="translate(17.046 0)"><path class="a" d="M234.818,167.2a.59.59,0,1,0,0-1.181H232.15a.59.59,0,0,0,0,1.181Z" transform="translate(-214.816 -153.051)"/><path class="a" d="M207.148,196.867a.59.59,0,0,0,.59.59h6.508a.59.59,0,0,0,0-1.181h-6.508A.59.59,0,0,0,207.148,196.867Z" transform="translate(-192.325 -180.946)"/><path class="a" d="M191.356,310.514H189.5V308.66a1.638,1.638,0,0,0-1.637-1.635h-1.524a1.637,1.637,0,0,0-1.635,1.635v1.854h-1.854a1.638,1.638,0,0,0-1.635,1.637v1.523a1.637,1.637,0,0,0,1.635,1.635h1.854v1.854a1.637,1.637,0,0,0,1.635,1.635h1.523a1.638,1.638,0,0,0,1.637-1.635V315.31h1.854a1.637,1.637,0,0,0,1.635-1.635v-1.523A1.638,1.638,0,0,0,191.356,310.514Zm.454,3.161a.461.461,0,0,1-.454.455h-2.444a.59.59,0,0,0-.59.59v2.444a.456.456,0,0,1-.457.455h-1.523a.455.455,0,0,1-.454-.455V314.72a.59.59,0,0,0-.59-.59h-2.444a.461.461,0,0,1-.455-.455v-1.523a.456.456,0,0,1,.455-.457H185.3a.59.59,0,0,0,.59-.59V308.66a.455.455,0,0,1,.454-.454h1.523a.456.456,0,0,1,.457.454V311.1a.59.59,0,0,0,.59.59h2.444a.456.456,0,0,1,.454.457Z" transform="translate(-168.435 -283.16)"/><path class="a" d="M51.464,33.488h-.88V21.512a2.613,2.613,0,0,0,3.035-4.174L51.077,14.8V11.74a.586.586,0,1,0-1.172,0v1.884l-4.2-4.2V5.83h4.2V8.951a.586.586,0,1,0,1.172,0V5.83h.056a1.026,1.026,0,0,0,1.024-1.024V1.964A1.026,1.026,0,0,0,51.133.94H44.477a1.026,1.026,0,0,0-1.024,1.024V4.806A1.026,1.026,0,0,0,44.477,5.83h.056V8.252L36.684.4a1.357,1.357,0,0,0-.967-.4h0a1.363,1.363,0,0,0-.97.4S21.887,13.258,17.811,17.337A2.611,2.611,0,0,0,19.657,21.8a2.623,2.623,0,0,0,1.189-.285v5.273a.586.586,0,0,0,1.172,0V20.521l13.7-13.7,13.7,13.7V33.488H45.2q.129-.335.235-.681A10.166,10.166,0,0,0,30.946,20.85h0a10.182,10.182,0,0,0-4.717,12.638H22.017v-4a.586.586,0,0,0-1.172,0v4h-.883a2.252,2.252,0,0,0,0,4.5h9.683a10.154,10.154,0,0,0,10.835.815,10.3,10.3,0,0,0,1.295-.816h9.689a2.252,2.252,0,1,0,0-4.5ZM44.624,2.112h6.361V4.658H44.624Zm-8.24,3.722a.957.957,0,0,0-1.344,0L20.677,20.2a1.445,1.445,0,0,1-2.039,0,1.444,1.444,0,0,1,0-2.038C22.716,14.087,35.573,1.23,35.573,1.23a.2.2,0,0,1,.142-.058h0a.2.2,0,0,1,.139.058L52.79,18.166A1.441,1.441,0,0,1,50.752,20.2ZM19.963,36.821a1.08,1.08,0,0,1,0-2.161H26.77a10.207,10.207,0,0,0,1.557,2.161H19.963Zm19.969.952A8.994,8.994,0,0,1,31.5,21.885h0a8.994,8.994,0,1,1,8.436,15.888Zm11.533-.952H43.1a10.05,10.05,0,0,0,1.562-2.161h6.8a1.08,1.08,0,1,1,0,2.161Z" transform="translate(-17.046 0)"/></g></g></svg>